<svg width="291" height="99" viewBox="0 0 291 99" fill="none" xmlns="http://www.w3.org/2000/svg">
	<path d="M39.4 46.4C39.4 48.7 39 50.8 38.1 52.6C37.2 54.4 36 55.9 34.4 57.2C32.6 58.6 30.6 59.6 28.5 60.2C26.3 60.8 23.6 61.1 20.3 61.1H0.299988V13.1H18C21.7 13.1 24.4 13.2 26.1 13.5C27.8 13.8 29.5 14.3 31.2 15.2C32.9 16.1 34.2 17.4 35.1 18.9C36 20.5 36.4 22.2 36.4 24.2C36.4 26.5 35.8 28.6 34.6 30.3C33.4 32.1 31.8 33.5 29.7 34.4V34.7C32.7 35.3 35.1 36.6 36.8 38.6C38.5 40.6 39.4 43.2 39.4 46.4ZM24.3 26.7C24.3 25.9 24.1 25.1 23.7 24.3C23.3 23.5 22.6 22.9 21.7 22.5C20.8 22.2 19.8 22 18.5 21.9C17.2 21.9 15.4 21.9 13.1 21.9H12V32H13.8C15.7 32 17.3 32 18.6 31.9C19.9 31.8 20.9 31.6 21.7 31.3C22.8 30.8 23.5 30.2 23.8 29.4C24.1 28.6 24.3 27.7 24.3 26.7ZM27.2 46.2C27.2 44.7 26.9 43.5 26.4 42.7C25.8 41.9 24.9 41.3 23.5 40.8C22.6 40.5 21.3 40.4 19.7 40.3C18.1 40.3 16.4 40.3 14.6 40.3H12V52.3H12.9C16.2 52.3 18.6 52.3 20 52.3C21.4 52.3 22.8 52 24 51.5C25.2 51 26.1 50.2 26.5 49.4C26.9 48.4 27.2 47.4 27.2 46.2Z" fill="#3F4040"/>
	<path d="M94.2 61.4H65.2V54.9C67.4 53.2 69.6 51.4 71.9 49.5C74.1 47.6 75.9 45.9 77.3 44.6C79.3 42.5 80.7 40.8 81.6 39.2C82.4 37.7 82.8999 36.2 82.8999 34.7C82.8999 32.9 82.4 31.5 81.3 30.6C80.2 29.6 78.7 29.1 76.6 29.1C75.1 29.1 73.5 29.4 71.8 30.1C70.1 30.8 68.6 31.6 67.1 32.7H66.3V24C67.5 23.5 69.2 22.9 71.5 22.4C73.8 21.9 76.0999 21.6 78.3999 21.6C82.9999 21.6 86.6 22.6 89 24.7C91.4 26.8 92.6 29.7 92.6 33.5C92.6 36 92 38.3 90.8 40.6C89.6 42.9 87.7999 45.1 85.3999 47.5C83.8999 49 82.3999 50.3 80.8999 51.6C79.3999 52.8 78.3 53.7 77.6 54.2H94.2V61.4V61.4Z" fill="#3F4040"/>
	<path d="M130.9 52.3999H125.9V61.4999H116.8V52.3999H98.8999V44.9999L116.2 22.2999H125.9V45.2999H130.9V52.3999ZM116.7 45.1999V30.9999L106 45.1999H116.7Z" fill="#3F4040"/>
	<path d="M173.3 62.4C170.4 62.4 167.8 62 165.5 61.3C163.2 60.6 161.1 59.4 159.3 57.9C157.6 56.4 156.2 54.4 155.3 52.1C154.4 49.8 153.9 47 153.9 43.9C153.9 40.6 154.4 37.8 155.4 35.4C156.4 33 157.8 31 159.7 29.4C161.5 27.9 163.5 26.8 165.8 26.1C168.1 25.4 170.5 25.1 173 25.1C175.2 25.1 177.3 25.4 179.2 25.9C181.1 26.4 182.8 27.1 184.5 27.9V37.6H183C182.6 37.2 182.1 36.8 181.5 36.3C180.9 35.8 180.2 35.3 179.4 34.8C178.6 34.3 177.7 34 176.8 33.7C175.9 33.4 174.7 33.2 173.5 33.2C170.7 33.2 168.6 34.2 167.1 36.1C165.6 38 164.8 40.6 164.8 43.9C164.8 47.3 165.6 49.9 167.1 51.6C168.6 53.4 170.8 54.2 173.7 54.2C175 54.2 176.2 54 177.3 53.7C178.4 53.4 179.2 53 179.9 52.6C180.6 52.2 181.1 51.7 181.6 51.3C182.1 50.8 182.6 50.4 183 49.9H184.5V59.6C182.9 60.4 181.1 61.1 179.3 61.6C177.4 62.2 175.5 62.4 173.3 62.4Z" fill="#3F4040"/>
	<path d="M223 61.5H212.5V43.9C212.5 42.5 212.4 41 212.3 39.6C212.2 38.2 211.9 37.1 211.6 36.5C211.2 35.7 210.6 35.2 209.9 34.8C209.2 34.4 208.1 34.3 206.8 34.3C205.8 34.3 204.9 34.5 203.9 34.8C202.9 35.1 201.9 35.7 200.7 36.4V61.5H190.2V12.5H200.7V30C202.6 28.4 204.3 27.2 206.1 26.4C207.8 25.6 209.7 25.1 211.8 25.1C215.3 25.1 218.1 26.2 220.1 28.4C222.1 30.6 223.1 34 223.1 38.4V61.5H223Z" fill="#3F4040"/>
	<path d="M251.2 57.6999C250.6 58.1999 249.9 58.7 249.1 59.4C248.3 60.1 247.5 60.6 246.7 60.9C245.7 61.4 244.6 61.8 243.5 62C242.4 62.2 241.2 62.4 239.9 62.4C236.8 62.4 234.2 61.4 232.1 59.3C230 57.2 229 54.6 229 51.3C229 48.7 229.5 46.6 230.6 45C231.7 43.4 233.2 42.0999 235.1 41.0999C237 40.1999 239.4 39.4999 242.3 39.0999C245.2 38.6999 248.1 38.3999 251.2 38.1999V38C251.2 36 250.5 34.7 249 34C247.5 33.3 245.4 32.9 242.5 32.9C240.8 32.9 238.9 33.2 237 33.9C235 34.6 233.6 35.1 232.8 35.4H231.8V26.9C232.9 26.6 234.7 26.1999 237.2 25.7999C239.7 25.3999 242.2 25.2 244.7 25.2C250.7 25.2 255 26.2 257.6 28.2C260.2 30.2 261.6 33.3 261.6 37.5V61.5999H251.2V57.6999V57.6999ZM251.2 52.1999V44.9C249.8 45 248.3 45.2 246.6 45.4C245 45.6 243.7 45.8999 242.8 46.1999C241.8 46.5999 241 47.1 240.4 47.8C239.8 48.5 239.6 49.4 239.6 50.5C239.6 51.2 239.7 51.8 239.8 52.3C239.9 52.8 240.2 53.1999 240.7 53.5999C241.1 53.9999 241.7 54.3 242.3 54.5C242.9 54.7 243.9 54.8 245.2 54.8C246.2 54.8 247.3 54.5999 248.4 54.0999C249.4 53.5999 250.4 52.9999 251.2 52.1999Z" fill="#3F4040"/>
	<path d="M290.9 61.2C289.8 61.5 288.6 61.8 287.3 61.9C286 62.1 284.5 62.2 282.7 62.2C278.6 62.2 275.6 61.3 273.6 59.5C271.6 57.7 270.6 54.7 270.6 50.3V33.8H266.3V26.1H270.6V16H281.1V26.1H290.9V33.8H281.1V46.4C281.1 47.6 281.1 48.7 281.1 49.6C281.1 50.5 281.3 51.4 281.6 52.1C281.9 52.8 282.3 53.4 283 53.9C283.7 54.3 284.7 54.5 286 54.5C286.5 54.5 287.3 54.4 288.1 54.1C289 53.8 289.6 53.6 289.9 53.4H290.8V61.2H290.9Z" fill="#3F4040"/>
	<path d="M52.2 72.5C49.7 72.5 47.6 70.4 47.6 67.9V29.1C47.6 13.3 60.4 0.5 76.2 0.5H120.3C122.8 0.5 124.9 2.6 124.9 5.1C124.9 7.6 122.8 9.7 120.3 9.7H76.2C65.5 9.7 56.8 18.4 56.8 29.1V68C56.8 70.5 54.7 72.5 52.2 72.5Z" fill="#1AABE3"/>
	<path d="M130.6 96.8999L119.1 78.8999C118.1 77.2999 119.2 75.0999 121.2 75.0999H144.2C145.1 75.0999 146.6 74.4999 147 75.0999C147.5 75.8999 146.9 77.9999 146.3 78.8999L134.8 96.8999C133.8 98.3999 131.6 98.3999 130.6 96.8999Z" fill="#00AF3E"/>
	<path d="M142.6 79.8C140.1 79.8 138 77.7 138 75.2V14.2C138 11.7 140.1 9.59998 142.6 9.59998C145.1 9.59998 147.2 11.7 147.2 14.2V75.2C147.2 77.7 145.2 79.8 142.6 79.8Z" fill="#00AF3E"/>
	<path d="M138.3 82.2H77C74.5 82.2 72.4 80.1 72.4 77.6C72.4 75.1 74.5 73 77 73H138.3C140.8 73 142.9 75.1 142.9 77.6C142.9 80.1 140.8 82.2 138.3 82.2Z" fill="#00AF3E"/>
</svg>
